<?xml version="1.0" encoding="UTF-8"?>
<svg xmlns="http://www.w3.org/2000/svg" xmlns:xlink="http://www.w3.org/1999/xlink" width="370.5pt" height="245.1pt" viewBox="0 0 370.5 245.1" version="1.1">
<defs>
<clipPath id="clip1">
  <path d="M 0 0 L 370.5 0 L 370.5 244 L 0 244 Z M 0 0 "/>
</clipPath>
</defs>
<g id="surface1">
<g clip-path="url(#clip1)" clip-rule="nonzero">
<path style=" stroke:none;fill-rule:evenodd;fill:rgb(10.594177%,9.812927%,9.423828%);fill-opacity:1;" d="M 48.980469 100.832031 C 78.144531 64.855469 110.128906 22.449219 136.839844 7.144531 C 145.238281 2.320313 152.785156 1.019531 160.15625 0.445313 C 174.726563 -0.0585938 182.441406 9.503906 182.269531 18.390625 C 182.117188 24.144531 179.714844 29.285156 172.796875 29.425781 C 166.339844 29.402344 163.808594 25.230469 164.269531 20.539063 C 164.554688 4.722656 143.859375 7.417969 137.65625 11.695313 C 120.160156 21.722656 95.265625 66.949219 67.367188 106.457031 C 83.128906 111.757813 98.597656 122.527344 114.179688 130.125 C 114.316406 111.792969 135.796875 100.746094 155.011719 99.628906 C 199.679688 97.492188 220.1875 108.03125 218.699219 130.117188 C 216.804688 148.738281 203.65625 154.363281 188.492188 154.796875 C 198.464844 191.695313 231.753906 238.929688 266.960938 240.636719 C 276.609375 240.246094 282.902344 237.101563 283.421875 229.242188 C 283.597656 226.585938 282.839844 226.875 281.464844 224.898438 C 277.382813 219.023438 287.398438 213.765625 292.671875 219.769531 C 298.070313 226.144531 295.460938 239.921875 274.976563 243.410156 C 265.539063 245.015625 255.992188 242.941406 246.941406 240.15625 C 208.742188 228.40625 183.339844 194.355469 171.648438 153.597656 C 169.203125 153.230469 166.789063 152.808594 164.445313 152.355469 L 150.429688 195.496094 C 148.785156 203.347656 151.109375 205.835938 155.003906 206.199219 L 161.441406 206.199219 L 160.429688 210.066406 L 115.597656 210.066406 L 116.609375 206.199219 L 122.960938 206.199219 C 127.710938 204.640625 132.519531 200.644531 137.5625 187.378906 L 161.175781 116.417969 L 161.882813 114.292969 C 163.960938 106.984375 160.316406 104.792969 150.554688 104.609375 C 125.738281 106.046875 120.515625 119.617188 120.769531 126.292969 C 122.367188 133.492188 128.378906 135.148438 134.691406 133.496094 C 141.128906 131.808594 145.355469 126.621094 147.382813 117.921875 C 150.367188 125.164063 149.054688 143.628906 131.289063 144.859375 C 119.675781 145.667969 106.558594 140.652344 96.136719 136.316406 C 84.472656 131.464844 71.503906 124.867188 58.109375 117.707031 C 47.082031 128.511719 35.183594 131.671875 23.007813 132.390625 C 8.261719 132.550781 0.0703125 126.921875 0.296875 117.664063 C 0.734375 104.996094 14.457031 98.273438 26.867188 98.511719 C 34.394531 98.238281 41.519531 99.488281 48.980469 100.832031 Z M 40.066406 109.847656 C 36.128906 107.804688 29.839844 105.980469 20.695313 105.382813 C 12.359375 104.988281 4.597656 109.082031 3.808594 117.664063 C 3.335938 123.015625 8.222656 126.238281 13.109375 125.695313 C 24.636719 124.363281 32.410156 117.949219 40.066406 109.847656 Z M 342.171875 23.4375 C 333.113281 29.058594 322.976563 40.792969 312.976563 56.519531 L 330.328125 56.519531 Z M 206.425781 92.675781 L 232.78125 92.675781 L 234.984375 84.515625 L 228.964844 84.515625 L 239.65625 54.589844 L 268.628906 92.714844 L 276.347656 92.714844 C 279.046875 92.714844 280.519531 92.171875 282.953125 90.859375 C 293.886719 84.960938 301.3125 73.539063 308.1875 63.734375 L 327.746094 63.734375 L 322.71875 77.777344 C 321.046875 81.96875 318.6875 84.214844 315.644531 84.515625 L 312.0625 84.515625 L 309.390625 92.675781 L 341.359375 92.675781 L 344.035156 84.515625 L 340.558594 84.515625 C 337.238281 84.515625 336.601563 84.136719 336.824219 81.1875 C 336.925781 79.820313 337.3125 78.75 337.753906 77.457031 L 356.191406 23.800781 C 357.972656 20.332031 360.359375 19.476563 362.835938 18.992188 C 365.390625 18.992188 367.945313 18.992188 370.503906 18.992188 L 370.503906 15.128906 C 320.589844 15.128906 270.671875 15.128906 220.757813 15.128906 C 216.894531 15.257813 212.910156 15.09375 209.5625 15.75 L 209.570313 15.730469 C 196.003906 18.539063 181.636719 30.695313 166.242188 54.804688 C 150.964844 78.757813 138.695313 90.921875 125.996094 91 C 111.761719 90.28125 108.671875 82.292969 108.445313 77.085938 C 108.566406 72.898438 110.171875 69.550781 114.171875 69.359375 C 117.410156 69.261719 119.367188 70.59375 119.441406 72.878906 C 118.128906 81.398438 128.714844 78.53125 127.628906 70.132813 C 127.226563 65.242188 123.972656 61.175781 117.171875 61.070313 C 110.53125 61 104.601563 65.847656 104.269531 75.585938 C 103.527344 87.277344 114.570313 94.863281 125.441406 94.476563 C 143.773438 94.664063 154.816406 78.195313 164.953125 63.734375 L 184.511719 63.734375 L 179.488281 77.777344 C 177.8125 81.96875 175.460938 84.214844 172.410156 84.515625 L 168.828125 84.515625 L 166.15625 92.675781 L 198.128906 92.675781 L 200.800781 84.515625 L 197.324219 84.515625 C 194.003906 84.515625 193.367188 84.136719 193.589844 81.1875 C 193.679688 79.992188 193.988281 79.023438 194.359375 77.933594 C 200.535156 59.882813 206.757813 41.84375 212.960938 23.800781 C 214.777344 19.976563 216.253906 19.035156 221.3125 18.992188 L 343.6875 18.992188 C 332.839844 24.5 321.464844 36.027344 309.476563 54.804688 C 299.503906 70.433594 290.816406 81.046875 282.453125 86.554688 C 280.15625 88.066406 278.019531 88.605469 275.78125 88.769531 L 275.960938 88.464844 L 294.128906 35.316406 L 299.855469 35.316406 L 302.058594 27.15625 L 275.703125 27.15625 L 273.503906 35.316406 L 279.722656 35.316406 L 268.074219 66.417969 L 237.753906 27.496094 L 233.785156 27.472656 L 214.523438 84.515625 L 208.632813 84.515625 Z M 187.09375 56.519531 L 198.933594 23.4375 C 189.882813 29.054688 179.742188 40.792969 169.742188 56.519531 Z M 32.609375 185.796875 L 39.992188 185.785156 C 44.121094 185.777344 47.65625 185.671875 51.679688 184.53125 C 76.757813 177.425781 73.109375 150.773438 55.367188 146.214844 C 50.953125 145.078125 45.640625 145.339844 41.105469 145.328125 C 38.316406 145.324219 35.554688 145.5 33.035156 146.207031 C 26.078125 148.164063 21.410156 153.742188 21.414063 159.054688 C 21.664063 162.996094 23.59375 164.515625 26.472656 164.679688 C 29.089844 164.566406 30.195313 163.105469 30.757813 161.160156 C 31.480469 157.417969 27.613281 156.617188 26.945313 159.226563 C 25.527344 160.132813 23.59375 159.128906 24.757813 155.578125 C 25.960938 152.621094 28.09375 150.808594 30.402344 149.617188 C 32.929688 148.316406 35.15625 148.203125 37.890625 148.234375 L 41.472656 148.277344 L 28.1875 182.507813 L 25.050781 182.507813 L 24.222656 185.761719 L 33.089844 185.761719 Z M 50.660156 148.671875 C 51.5625 148.773438 52.464844 148.898438 53.355469 149.050781 C 56.082031 149.519531 57.925781 150.164063 59.597656 152.574219 C 60.515625 153.894531 60.972656 155.351563 61.214844 156.871094 C 61.71875 160.085938 61.5625 163.265625 60.917969 166.441406 C 58.777344 176.980469 52.632813 181.195313 44.527344 182.308594 C 42.402344 182.597656 40.058594 182.714844 37.550781 182.457031 Z M 78.636719 148.664063 C 88.417969 148.664063 98.222656 148.675781 107.984375 148.675781 L 105.441406 158.195313 L 96.890625 158.195313 L 98.203125 153.300781 L 89.03125 153.300781 L 85.972656 162.617188 L 94.96875 162.617188 L 93.070313 168.628906 L 84.003906 168.628906 L 80.160156 180.351563 L 89.03125 180.351563 L 91.136719 174.199219 L 99.6875 174.199219 L 95.90625 184.980469 C 86.140625 184.980469 76.335938 184.988281 66.550781 184.988281 L 68.179688 180.351563 L 71.414063 180.351563 L 80.285156 153.300781 L 77.347656 153.300781 Z M 113.597656 148.664063 C 118.796875 148.664063 123.996094 148.667969 129.195313 148.667969 L 127.796875 153.300781 L 123.988281 153.300781 C 121.03125 162.316406 118.074219 171.335938 115.117188 180.351563 L 123.988281 180.351563 L 126.097656 174.199219 L 134.644531 174.199219 L 130.863281 184.980469 C 121.101563 184.980469 111.296875 184.988281 101.511719 184.988281 L 103.136719 180.351563 L 106.378906 180.351563 L 115.246094 153.300781 L 112.308594 153.300781 Z M 229.628906 118.730469 C 245.804688 118.730469 262.015625 118.742188 278.175781 118.746094 C 280.964844 111.375 288.3125 98.089844 298.929688 98.296875 C 307.050781 98.246094 309.285156 105.378906 309.472656 111.609375 C 310.304688 133.714844 305.570313 159.722656 303.003906 184.214844 C 319.984375 163.585938 335.472656 143.097656 337.757813 123.847656 C 338.160156 120.058594 337.460938 117.1875 335.835938 115.613281 C 334.546875 114.371094 333.398438 114.558594 331.789063 114.300781 C 327.648438 113.636719 324.648438 111.222656 324.773438 106.585938 C 324.746094 103.550781 325.789063 99.402344 333.386719 98.601563 C 336.886719 98.089844 347.078125 99.949219 346.929688 114.828125 C 347.230469 121.960938 345.007813 128.25 341.878906 134.238281 C 335.878906 144.851563 302.382813 206.875 268.421875 216.808594 C 263.757813 218.171875 258.195313 218.9375 253.527344 217.226563 C 247.496094 215.015625 243.152344 209.421875 246.058594 204.179688 C 246.871094 202.714844 247.839844 201.921875 249.355469 201.226563 C 255.621094 198.347656 259.371094 204.582031 261.765625 210.105469 C 263.164063 213.335938 264.421875 213.230469 267.902344 212.671875 C 273.691406 211.746094 281.070313 208.117188 286.371094 193.316406 C 292.066406 167.710938 296.328125 141.753906 295.84375 114.65625 C 296.179688 109.496094 291.710938 105.167969 287.703125 111.480469 C 285.308594 115.464844 283.101563 119.488281 281.867188 124.023438 L 278.628906 136.152344 L 262.996094 136.152344 L 265.386719 127.207031 L 248.628906 127.207031 L 243.039063 144.238281 L 259.480469 144.238281 L 256.007813 155.226563 L 239.4375 155.226563 L 232.410156 176.65625 L 248.628906 176.65625 L 252.476563 165.410156 L 268.105469 165.410156 L 261.195313 185.117188 C 243.34375 185.117188 225.414063 185.132813 207.53125 185.132813 L 210.507813 176.65625 L 216.425781 176.65625 L 232.640625 127.207031 L 227.269531 127.207031 Z M 165.421875 149.347656 C 169.175781 137.792969 172.929688 126.238281 176.683594 114.679688 C 179.109375 109.09375 181.296875 103.699219 188.960938 104.351563 C 195.539063 104.785156 201.53125 108.625 203.953125 114.648438 C 205.53125 118.582031 205.117188 122.59375 204.429688 126.65625 C 200.199219 151.5625 181.019531 153.097656 165.421875 149.347656 Z M 22.152344 191.515625 L 128.609375 191.515625 L 127.445313 194.953125 L 20.984375 194.953125 Z M 22.152344 191.515625 "/>
</g>
</g>
</svg>
